# xmcd
#
# Track frame offsets: 
#        150
#        21044
#        37651
#        60194
#        79754
#        104622
#        122600
#        160095
#        185494
#        203047
#        240756
#        264783
#        288165
#
# Disc length: 4422 seconds
#
# Revision: 1
# Processed by: cddbd v1.5.2PL0 Copyright (c) Steve Scherf et al.
# Submitted via: ExactAudioCopyFreeDBPlugin 1.0
#
DISCID=9211440d
DTITLE=Whiskey Myers - Road Of Life
DYEAR=2008
DGENRE=Country
TTITLE0=Thief Of Hearts
TTITLE1=Kyle Hope
TTITLE2=Gone Away
TTITLE3=Lonely East Texas Nights
TTITLE4=Hippie's Lament
TTITLE5=Road Of Life
TTITLE6=Melancholy Blues
TTITLE7=Goodbye Girl
TTITLE8=Summertime 2005
TTITLE9=American Outlaws
TTITLE10=Nobody Knows Her Name
TTITLE11=Russell's Song
TTITLE12=Tya
EXTD=
EXTT0=
EXTT1=
EXTT2=
EXTT3=
EXTT4=
EXTT5=
EXTT6=
EXTT7=
EXTT8=
EXTT9=
EXTT10=
EXTT11=
EXTT12=
PLAYORDER=
